<?xml version="1.0" encoding="utf-8" standalone="no"?>
<!DOCTYPE svg PUBLIC "-//W3C//DTD SVG 1.1//EN"
  "http://www.w3.org/Graphics/SVG/1.1/DTD/svg11.dtd">
<svg height="360pt" version="1.1" viewBox="0 0 1172.25 360" width="1172.25pt" xmlns="http://www.w3.org/2000/svg" xmlns:xlink="http://www.w3.org/1999/xlink">
 <metadata>
  <rdf:RDF xmlns:cc="http://creativecommons.org/ns#" xmlns:dc="http://purl.org/dc/elements/1.1/" xmlns:rdf="http://www.w3.org/1999/02/22-rdf-syntax-ns#">
   <cc:Work>
    <dc:type rdf:resource="http://purl.org/dc/dcmitype/StillImage"/>
    <dc:date>2022-05-27T15:27:49.192372</dc:date>
    <dc:format>image/svg+xml</dc:format>
    <dc:creator>
     <cc:Agent>
      <dc:title>Matplotlib v3.4.3, https://matplotlib.org/</dc:title>
     </cc:Agent>
    </dc:creator>
   </cc:Work>
  </rdf:RDF>
 </metadata>
 <defs>
  <style type="text/css">*{stroke-linecap:butt;stroke-linejoin:round;}</style>
 </defs>
 <g id="figure_1">
  <g id="patch_1">
   <path d="M 0 360
L 1172.25 360
L 1172.25 0
L 0 0
z
" style="fill:none;"/>
  </g>
  <g id="axes_1">
   <g id="patch_2">
    <path d="M 65.925 308.29375
L 1161.45 308.29375
L 1161.45 31.8
L 65.925 31.8
z
" style="fill:#ffffff;"/>
   </g>
   <g id="patch_3">
    <path clip-path="url(#p454ee24309)" d="M 87.8355 308.29375
L 131.6565 308.29375
L 131.6565 242.71666
L 87.8355 242.71666
z
" style="fill:#2020df;"/>
   </g>
   <g id="patch_4">
    <path clip-path="url(#p454ee24309)" d="M 306.9405 308.29375
L 350.7615 308.29375
L 350.7615 287.373819
L 306.9405 287.373819
z
" style="fill:#2020df;"/>
   </g>
   <g id="patch_5">
    <path clip-path="url(#p454ee24309)" d="M 526.0455 308.29375
L 569.8665 308.29375
L 569.8665 252.906885
L 526.0455 252.906885
z
" style="fill:#2020df;"/>
   </g>
   <g id="patch_6">
    <path clip-path="url(#p454ee24309)" d="M 745.1505 308.29375
L 788.9715 308.29375
L 788.9715 298.403238
L 745.1505 298.403238
z
" style="fill:#2020df;"/>
   </g>
   <g id="patch_7">
    <path clip-path="url(#p454ee24309)" d="M 0 0
z
" style="fill:#2020df;"/>
   </g>
   <g id="patch_8">
    <path clip-path="url(#p454ee24309)" d="M 131.6565 308.29375
L 175.4775 308.29375
L 175.4775 252.727057
L 131.6565 252.727057
z
" style="fill:#e87b5e;"/>
   </g>
   <g id="patch_9">
    <path clip-path="url(#p454ee24309)" d="M 350.7615 308.29375
L 394.5825 308.29375
L 394.5825 288.932324
L 350.7615 288.932324
z
" style="fill:#e87b5e;"/>
   </g>
   <g id="patch_10">
    <path clip-path="url(#p454ee24309)" d="M 569.8665 308.29375
L 613.6875 308.29375
L 613.6875 266.274061
L 569.8665 266.274061
z
" style="fill:#e87b5e;"/>
   </g>
   <g id="patch_11">
    <path clip-path="url(#p454ee24309)" d="M 788.9715 308.29375
L 832.7925 308.29375
L 832.7925 300.321398
L 788.9715 300.321398
z
" style="fill:#e87b5e;"/>
   </g>
   <g id="patch_12">
    <path clip-path="url(#p454ee24309)" d="M 0 0
z
" style="fill:#e87b5e;"/>
   </g>
   <g id="patch_13">
    <path clip-path="url(#p454ee24309)" d="M 175.4775 308.29375
L 219.2985 308.29375
L 219.2985 44.966369
L 175.4775 44.966369
z
" style="fill:#299381;"/>
   </g>
   <g id="patch_14">
    <path clip-path="url(#p454ee24309)" d="M 394.5825 308.29375
L 438.4035 308.29375
L 438.4035 197.220307
L 394.5825 197.220307
z
" style="fill:#299381;"/>
   </g>
   <g id="patch_15">
    <path clip-path="url(#p454ee24309)" d="M 613.6875 308.29375
L 657.5085 308.29375
L 657.5085 186.4906
L 613.6875 186.4906
z
" style="fill:#299381;"/>
   </g>
   <g id="patch_16">
    <path clip-path="url(#p454ee24309)" d="M 832.7925 308.29375
L 876.6135 308.29375
L 876.6135 262.677511
L 832.7925 262.677511
z
" style="fill:#299381;"/>
   </g>
   <g id="patch_17">
    <path clip-path="url(#p454ee24309)" d="M 1051.8975 308.29375
L 1095.7185 308.29375
L 1095.7185 307.874153
L 1051.8975 307.874153
z
" style="fill:#299381;"/>
   </g>
   <g id="patch_18">
    <path clip-path="url(#p454ee24309)" d="M 219.2985 308.29375
L 263.1195 308.29375
L 263.1195 291.749621
L 219.2985 291.749621
z
" style="fill:#ce1d4a;"/>
   </g>
   <g id="patch_19">
    <path clip-path="url(#p454ee24309)" d="M 438.4035 308.29375
L 482.2245 308.29375
L 482.2245 295.406114
L 438.4035 295.406114
z
" style="fill:#ce1d4a;"/>
   </g>
   <g id="patch_20">
    <path clip-path="url(#p454ee24309)" d="M 657.5085 308.29375
L 701.3295 308.29375
L 701.3295 294.147321
L 657.5085 294.147321
z
" style="fill:#ce1d4a;"/>
   </g>
   <g id="patch_21">
    <path clip-path="url(#p454ee24309)" d="M 876.6135 308.29375
L 920.4345 308.29375
L 920.4345 298.463181
L 876.6135 298.463181
z
" style="fill:#ce1d4a;"/>
   </g>
   <g id="patch_22">
    <path clip-path="url(#p454ee24309)" d="M 0 0
z
" style="fill:#ce1d4a;"/>
   </g>
   <g id="matplotlib.axis_1">
    <g id="xtick_1">
     <g id="line2d_1">
      <defs>
       <path d="M 0 0
L 0 3.5
" id="mefb98717ba" style="stroke:#000000;stroke-width:0.8;"/>
      </defs>
      <g>
       <use style="stroke:#000000;stroke-width:0.8;" x="175.4775" xlink:href="#mefb98717ba" y="308.29375"/>
      </g>
     </g>
     <g id="text_1">
      <!-- Rumours_beliefs_observations -->
      <g transform="translate(99.654844 322.892188)scale(0.1 -0.1)">
       <defs>
        <path d="M 2841 2188
Q 3044 2119 3236 1894
Q 3428 1669 3622 1275
L 4263 0
L 3584 0
L 2988 1197
Q 2756 1666 2539 1819
Q 2322 1972 1947 1972
L 1259 1972
L 1259 0
L 628 0
L 628 4666
L 2053 4666
Q 2853 4666 3247 4331
Q 3641 3997 3641 3322
Q 3641 2881 3436 2590
Q 3231 2300 2841 2188
z
M 1259 4147
L 1259 2491
L 2053 2491
Q 2509 2491 2742 2702
Q 2975 2913 2975 3322
Q 2975 3731 2742 3939
Q 2509 4147 2053 4147
L 1259 4147
z
" id="DejaVuSans-52" transform="scale(0.015625)"/>
        <path d="M 544 1381
L 544 3500
L 1119 3500
L 1119 1403
Q 1119 906 1312 657
Q 1506 409 1894 409
Q 2359 409 2629 706
Q 2900 1003 2900 1516
L 2900 3500
L 3475 3500
L 3475 0
L 2900 0
L 2900 538
Q 2691 219 2414 64
Q 2138 -91 1772 -91
Q 1169 -91 856 284
Q 544 659 544 1381
z
M 1991 3584
L 1991 3584
z
" id="DejaVuSans-75" transform="scale(0.015625)"/>
        <path d="M 3328 2828
Q 3544 3216 3844 3400
Q 4144 3584 4550 3584
Q 5097 3584 5394 3201
Q 5691 2819 5691 2113
L 5691 0
L 5113 0
L 5113 2094
Q 5113 2597 4934 2840
Q 4756 3084 4391 3084
Q 3944 3084 3684 2787
Q 3425 2491 3425 1978
L 3425 0
L 2847 0
L 2847 2094
Q 2847 2600 2669 2842
Q 2491 3084 2119 3084
Q 1678 3084 1418 2786
Q 1159 2488 1159 1978
L 1159 0
L 581 0
L 581 3500
L 1159 3500
L 1159 2956
Q 1356 3278 1631 3431
Q 1906 3584 2284 3584
Q 2666 3584 2933 3390
Q 3200 3197 3328 2828
z
" id="DejaVuSans-6d" transform="scale(0.015625)"/>
        <path d="M 1959 3097
Q 1497 3097 1228 2736
Q 959 2375 959 1747
Q 959 1119 1226 758
Q 1494 397 1959 397
Q 2419 397 2687 759
Q 2956 1122 2956 1747
Q 2956 2369 2687 2733
Q 2419 3097 1959 3097
z
M 1959 3584
Q 2709 3584 3137 3096
Q 3566 2609 3566 1747
Q 3566 888 3137 398
Q 2709 -91 1959 -91
Q 1206 -91 779 398
Q 353 888 353 1747
Q 353 2609 779 3096
Q 1206 3584 1959 3584
z
" id="DejaVuSans-6f" transform="scale(0.015625)"/>
        <path d="M 2631 2963
Q 2534 3019 2420 3045
Q 2306 3072 2169 3072
Q 1681 3072 1420 2755
Q 1159 2438 1159 1844
L 1159 0
L 581 0
L 581 3500
L 1159 3500
L 1159 2956
Q 1341 3275 1631 3429
Q 1922 3584 2338 3584
Q 2397 3584 2469 3576
Q 2541 3569 2628 3553
L 2631 2963
z
" id="DejaVuSans-72" transform="scale(0.015625)"/>
        <path d="M 2834 3397
L 2834 2853
Q 2591 2978 2328 3040
Q 2066 3103 1784 3103
Q 1356 3103 1142 2972
Q 928 2841 928 2578
Q 928 2378 1081 2264
Q 1234 2150 1697 2047
L 1894 2003
Q 2506 1872 2764 1633
Q 3022 1394 3022 966
Q 3022 478 2636 193
Q 2250 -91 1575 -91
Q 1294 -91 989 -36
Q 684 19 347 128
L 347 722
Q 666 556 975 473
Q 1284 391 1588 391
Q 1994 391 2212 530
Q 2431 669 2431 922
Q 2431 1156 2273 1281
Q 2116 1406 1581 1522
L 1381 1569
Q 847 1681 609 1914
Q 372 2147 372 2553
Q 372 3047 722 3315
Q 1072 3584 1716 3584
Q 2034 3584 2315 3537
Q 2597 3491 2834 3397
z
" id="DejaVuSans-73" transform="scale(0.015625)"/>
        <path d="M 3263 -1063
L 3263 -1509
L -63 -1509
L -63 -1063
L 3263 -1063
z
" id="DejaVuSans-5f" transform="scale(0.015625)"/>
        <path d="M 3116 1747
Q 3116 2381 2855 2742
Q 2594 3103 2138 3103
Q 1681 3103 1420 2742
Q 1159 2381 1159 1747
Q 1159 1113 1420 752
Q 1681 391 2138 391
Q 2594 391 2855 752
Q 3116 1113 3116 1747
z
M 1159 2969
Q 1341 3281 1617 3432
Q 1894 3584 2278 3584
Q 2916 3584 3314 3078
Q 3713 2572 3713 1747
Q 3713 922 3314 415
Q 2916 -91 2278 -91
Q 1894 -91 1617 61
Q 1341 213 1159 525
L 1159 0
L 581 0
L 581 4863
L 1159 4863
L 1159 2969
z
" id="DejaVuSans-62" transform="scale(0.015625)"/>
        <path d="M 3597 1894
L 3597 1613
L 953 1613
Q 991 1019 1311 708
Q 1631 397 2203 397
Q 2534 397 2845 478
Q 3156 559 3463 722
L 3463 178
Q 3153 47 2828 -22
Q 2503 -91 2169 -91
Q 1331 -91 842 396
Q 353 884 353 1716
Q 353 2575 817 3079
Q 1281 3584 2069 3584
Q 2775 3584 3186 3129
Q 3597 2675 3597 1894
z
M 3022 2063
Q 3016 2534 2758 2815
Q 2500 3097 2075 3097
Q 1594 3097 1305 2825
Q 1016 2553 972 2059
L 3022 2063
z
" id="DejaVuSans-65" transform="scale(0.015625)"/>
        <path d="M 603 4863
L 1178 4863
L 1178 0
L 603 0
L 603 4863
z
" id="DejaVuSans-6c" transform="scale(0.015625)"/>
        <path d="M 603 3500
L 1178 3500
L 1178 0
L 603 0
L 603 3500
z
M 603 4863
L 1178 4863
L 1178 4134
L 603 4134
L 603 4863
z
" id="DejaVuSans-69" transform="scale(0.015625)"/>
        <path d="M 2375 4863
L 2375 4384
L 1825 4384
Q 1516 4384 1395 4259
Q 1275 4134 1275 3809
L 1275 3500
L 2222 3500
L 2222 3053
L 1275 3053
L 1275 0
L 697 0
L 697 3053
L 147 3053
L 147 3500
L 697 3500
L 697 3744
Q 697 4328 969 4595
Q 1241 4863 1831 4863
L 2375 4863
z
" id="DejaVuSans-66" transform="scale(0.015625)"/>
        <path d="M 191 3500
L 800 3500
L 1894 563
L 2988 3500
L 3597 3500
L 2284 0
L 1503 0
L 191 3500
z
" id="DejaVuSans-76" transform="scale(0.015625)"/>
        <path d="M 2194 1759
Q 1497 1759 1228 1600
Q 959 1441 959 1056
Q 959 750 1161 570
Q 1363 391 1709 391
Q 2188 391 2477 730
Q 2766 1069 2766 1631
L 2766 1759
L 2194 1759
z
M 3341 1997
L 3341 0
L 2766 0
L 2766 531
Q 2569 213 2275 61
Q 1981 -91 1556 -91
Q 1019 -91 701 211
Q 384 513 384 1019
Q 384 1609 779 1909
Q 1175 2209 1959 2209
L 2766 2209
L 2766 2266
Q 2766 2663 2505 2880
Q 2244 3097 1772 3097
Q 1472 3097 1187 3025
Q 903 2953 641 2809
L 641 3341
Q 956 3463 1253 3523
Q 1550 3584 1831 3584
Q 2591 3584 2966 3190
Q 3341 2797 3341 1997
z
" id="DejaVuSans-61" transform="scale(0.015625)"/>
        <path d="M 1172 4494
L 1172 3500
L 2356 3500
L 2356 3053
L 1172 3053
L 1172 1153
Q 1172 725 1289 603
Q 1406 481 1766 481
L 2356 481
L 2356 0
L 1766 0
Q 1100 0 847 248
Q 594 497 594 1153
L 594 3053
L 172 3053
L 172 3500
L 594 3500
L 594 4494
L 1172 4494
z
" id="DejaVuSans-74" transform="scale(0.015625)"/>
        <path d="M 3513 2113
L 3513 0
L 2938 0
L 2938 2094
Q 2938 2591 2744 2837
Q 2550 3084 2163 3084
Q 1697 3084 1428 2787
Q 1159 2491 1159 1978
L 1159 0
L 581 0
L 581 3500
L 1159 3500
L 1159 2956
Q 1366 3272 1645 3428
Q 1925 3584 2291 3584
Q 2894 3584 3203 3211
Q 3513 2838 3513 2113
z
" id="DejaVuSans-6e" transform="scale(0.015625)"/>
       </defs>
       <use xlink:href="#DejaVuSans-52"/>
       <use x="64.982422" xlink:href="#DejaVuSans-75"/>
       <use x="128.361328" xlink:href="#DejaVuSans-6d"/>
       <use x="225.773438" xlink:href="#DejaVuSans-6f"/>
       <use x="286.955078" xlink:href="#DejaVuSans-75"/>
       <use x="350.333984" xlink:href="#DejaVuSans-72"/>
       <use x="391.447266" xlink:href="#DejaVuSans-73"/>
       <use x="443.546875" xlink:href="#DejaVuSans-5f"/>
       <use x="493.546875" xlink:href="#DejaVuSans-62"/>
       <use x="557.023438" xlink:href="#DejaVuSans-65"/>
       <use x="618.546875" xlink:href="#DejaVuSans-6c"/>
       <use x="646.330078" xlink:href="#DejaVuSans-69"/>
       <use x="674.113281" xlink:href="#DejaVuSans-65"/>
       <use x="735.636719" xlink:href="#DejaVuSans-66"/>
       <use x="770.841797" xlink:href="#DejaVuSans-73"/>
       <use x="822.941406" xlink:href="#DejaVuSans-5f"/>
       <use x="872.941406" xlink:href="#DejaVuSans-6f"/>
       <use x="934.123047" xlink:href="#DejaVuSans-62"/>
       <use x="997.599609" xlink:href="#DejaVuSans-73"/>
       <use x="1049.699219" xlink:href="#DejaVuSans-65"/>
       <use x="1111.222656" xlink:href="#DejaVuSans-72"/>
       <use x="1152.335938" xlink:href="#DejaVuSans-76"/>
       <use x="1211.515625" xlink:href="#DejaVuSans-61"/>
       <use x="1272.794922" xlink:href="#DejaVuSans-74"/>
       <use x="1312.003906" xlink:href="#DejaVuSans-69"/>
       <use x="1339.787109" xlink:href="#DejaVuSans-6f"/>
       <use x="1400.96875" xlink:href="#DejaVuSans-6e"/>
       <use x="1464.347656" xlink:href="#DejaVuSans-73"/>
      </g>
     </g>
    </g>
    <g id="xtick_2">
     <g id="line2d_2">
      <g>
       <use style="stroke:#000000;stroke-width:0.8;" x="394.5825" xlink:href="#mefb98717ba" y="308.29375"/>
      </g>
     </g>
     <g id="text_2">
      <!-- Suggestions/requests -->
      <g transform="translate(340.734844 322.892188)scale(0.1 -0.1)">
       <defs>
        <path d="M 3425 4513
L 3425 3897
Q 3066 4069 2747 4153
Q 2428 4238 2131 4238
Q 1616 4238 1336 4038
Q 1056 3838 1056 3469
Q 1056 3159 1242 3001
Q 1428 2844 1947 2747
L 2328 2669
Q 3034 2534 3370 2195
Q 3706 1856 3706 1288
Q 3706 609 3251 259
Q 2797 -91 1919 -91
Q 1588 -91 1214 -16
Q 841 59 441 206
L 441 856
Q 825 641 1194 531
Q 1563 422 1919 422
Q 2459 422 2753 634
Q 3047 847 3047 1241
Q 3047 1584 2836 1778
Q 2625 1972 2144 2069
L 1759 2144
Q 1053 2284 737 2584
Q 422 2884 422 3419
Q 422 4038 858 4394
Q 1294 4750 2059 4750
Q 2388 4750 2728 4690
Q 3069 4631 3425 4513
z
" id="DejaVuSans-53" transform="scale(0.015625)"/>
        <path d="M 2906 1791
Q 2906 2416 2648 2759
Q 2391 3103 1925 3103
Q 1463 3103 1205 2759
Q 947 2416 947 1791
Q 947 1169 1205 825
Q 1463 481 1925 481
Q 2391 481 2648 825
Q 2906 1169 2906 1791
z
M 3481 434
Q 3481 -459 3084 -895
Q 2688 -1331 1869 -1331
Q 1566 -1331 1297 -1286
Q 1028 -1241 775 -1147
L 775 -588
Q 1028 -725 1275 -790
Q 1522 -856 1778 -856
Q 2344 -856 2625 -561
Q 2906 -266 2906 331
L 2906 616
Q 2728 306 2450 153
Q 2172 0 1784 0
Q 1141 0 747 490
Q 353 981 353 1791
Q 353 2603 747 3093
Q 1141 3584 1784 3584
Q 2172 3584 2450 3431
Q 2728 3278 2906 2969
L 2906 3500
L 3481 3500
L 3481 434
z
" id="DejaVuSans-67" transform="scale(0.015625)"/>
        <path d="M 1625 4666
L 2156 4666
L 531 -594
L 0 -594
L 1625 4666
z
" id="DejaVuSans-2f" transform="scale(0.015625)"/>
        <path d="M 947 1747
Q 947 1113 1208 752
Q 1469 391 1925 391
Q 2381 391 2643 752
Q 2906 1113 2906 1747
Q 2906 2381 2643 2742
Q 2381 3103 1925 3103
Q 1469 3103 1208 2742
Q 947 2381 947 1747
z
M 2906 525
Q 2725 213 2448 61
Q 2172 -91 1784 -91
Q 1150 -91 751 415
Q 353 922 353 1747
Q 353 2572 751 3078
Q 1150 3584 1784 3584
Q 2172 3584 2448 3432
Q 2725 3281 2906 2969
L 2906 3500
L 3481 3500
L 3481 -1331
L 2906 -1331
L 2906 525
z
" id="DejaVuSans-71" transform="scale(0.015625)"/>
       </defs>
       <use xlink:href="#DejaVuSans-53"/>
       <use x="63.476562" xlink:href="#DejaVuSans-75"/>
       <use x="126.855469" xlink:href="#DejaVuSans-67"/>
       <use x="190.332031" xlink:href="#DejaVuSans-67"/>
       <use x="253.808594" xlink:href="#DejaVuSans-65"/>
       <use x="315.332031" xlink:href="#DejaVuSans-73"/>
       <use x="367.431641" xlink:href="#DejaVuSans-74"/>
       <use x="406.640625" xlink:href="#DejaVuSans-69"/>
       <use x="434.423828" xlink:href="#DejaVuSans-6f"/>
       <use x="495.605469" xlink:href="#DejaVuSans-6e"/>
       <use x="558.984375" xlink:href="#DejaVuSans-73"/>
       <use x="611.083984" xlink:href="#DejaVuSans-2f"/>
       <use x="644.775391" xlink:href="#DejaVuSans-72"/>
       <use x="683.638672" xlink:href="#DejaVuSans-65"/>
       <use x="745.162109" xlink:href="#DejaVuSans-71"/>
       <use x="808.638672" xlink:href="#DejaVuSans-75"/>
       <use x="872.017578" xlink:href="#DejaVuSans-65"/>
       <use x="933.541016" xlink:href="#DejaVuSans-73"/>
       <use x="985.640625" xlink:href="#DejaVuSans-74"/>
       <use x="1024.849609" xlink:href="#DejaVuSans-73"/>
      </g>
     </g>
    </g>
    <g id="xtick_3">
     <g id="line2d_3">
      <g>
       <use style="stroke:#000000;stroke-width:0.8;" x="613.6875" xlink:href="#mefb98717ba" y="308.29375"/>
      </g>
     </g>
     <g id="text_3">
      <!-- Questions -->
      <g transform="translate(588.719531 322.892188)scale(0.1 -0.1)">
       <defs>
        <path d="M 2522 4238
Q 1834 4238 1429 3725
Q 1025 3213 1025 2328
Q 1025 1447 1429 934
Q 1834 422 2522 422
Q 3209 422 3611 934
Q 4013 1447 4013 2328
Q 4013 3213 3611 3725
Q 3209 4238 2522 4238
z
M 3406 84
L 4238 -825
L 3475 -825
L 2784 -78
Q 2681 -84 2626 -87
Q 2572 -91 2522 -91
Q 1538 -91 948 567
Q 359 1225 359 2328
Q 359 3434 948 4092
Q 1538 4750 2522 4750
Q 3503 4750 4090 4092
Q 4678 3434 4678 2328
Q 4678 1516 4351 937
Q 4025 359 3406 84
z
" id="DejaVuSans-51" transform="scale(0.015625)"/>
       </defs>
       <use xlink:href="#DejaVuSans-51"/>
       <use x="78.710938" xlink:href="#DejaVuSans-75"/>
       <use x="142.089844" xlink:href="#DejaVuSans-65"/>
       <use x="203.613281" xlink:href="#DejaVuSans-73"/>
       <use x="255.712891" xlink:href="#DejaVuSans-74"/>
       <use x="294.921875" xlink:href="#DejaVuSans-69"/>
       <use x="322.705078" xlink:href="#DejaVuSans-6f"/>
       <use x="383.886719" xlink:href="#DejaVuSans-6e"/>
       <use x="447.265625" xlink:href="#DejaVuSans-73"/>
      </g>
     </g>
    </g>
    <g id="xtick_4">
     <g id="line2d_4">
      <g>
       <use style="stroke:#000000;stroke-width:0.8;" x="832.7925" xlink:href="#mefb98717ba" y="308.29375"/>
      </g>
     </g>
     <g id="text_4">
      <!-- Appreciation/encouragement -->
      <g transform="translate(759.871406 322.892188)scale(0.1 -0.1)">
       <defs>
        <path d="M 2188 4044
L 1331 1722
L 3047 1722
L 2188 4044
z
M 1831 4666
L 2547 4666
L 4325 0
L 3669 0
L 3244 1197
L 1141 1197
L 716 0
L 50 0
L 1831 4666
z
" id="DejaVuSans-41" transform="scale(0.015625)"/>
        <path d="M 1159 525
L 1159 -1331
L 581 -1331
L 581 3500
L 1159 3500
L 1159 2969
Q 1341 3281 1617 3432
Q 1894 3584 2278 3584
Q 2916 3584 3314 3078
Q 3713 2572 3713 1747
Q 3713 922 3314 415
Q 2916 -91 2278 -91
Q 1894 -91 1617 61
Q 1341 213 1159 525
z
M 3116 1747
Q 3116 2381 2855 2742
Q 2594 3103 2138 3103
Q 1681 3103 1420 2742
Q 1159 2381 1159 1747
Q 1159 1113 1420 752
Q 1681 391 2138 391
Q 2594 391 2855 752
Q 3116 1113 3116 1747
z
" id="DejaVuSans-70" transform="scale(0.015625)"/>
        <path d="M 3122 3366
L 3122 2828
Q 2878 2963 2633 3030
Q 2388 3097 2138 3097
Q 1578 3097 1268 2742
Q 959 2388 959 1747
Q 959 1106 1268 751
Q 1578 397 2138 397
Q 2388 397 2633 464
Q 2878 531 3122 666
L 3122 134
Q 2881 22 2623 -34
Q 2366 -91 2075 -91
Q 1284 -91 818 406
Q 353 903 353 1747
Q 353 2603 823 3093
Q 1294 3584 2113 3584
Q 2378 3584 2631 3529
Q 2884 3475 3122 3366
z
" id="DejaVuSans-63" transform="scale(0.015625)"/>
       </defs>
       <use xlink:href="#DejaVuSans-41"/>
       <use x="68.408203" xlink:href="#DejaVuSans-70"/>
       <use x="131.884766" xlink:href="#DejaVuSans-70"/>
       <use x="195.361328" xlink:href="#DejaVuSans-72"/>
       <use x="234.224609" xlink:href="#DejaVuSans-65"/>
       <use x="295.748047" xlink:href="#DejaVuSans-63"/>
       <use x="350.728516" xlink:href="#DejaVuSans-69"/>
       <use x="378.511719" xlink:href="#DejaVuSans-61"/>
       <use x="439.791016" xlink:href="#DejaVuSans-74"/>
       <use x="479" xlink:href="#DejaVuSans-69"/>
       <use x="506.783203" xlink:href="#DejaVuSans-6f"/>
       <use x="567.964844" xlink:href="#DejaVuSans-6e"/>
       <use x="631.34375" xlink:href="#DejaVuSans-2f"/>
       <use x="665.035156" xlink:href="#DejaVuSans-65"/>
       <use x="726.558594" xlink:href="#DejaVuSans-6e"/>
       <use x="789.9375" xlink:href="#DejaVuSans-63"/>
       <use x="844.917969" xlink:href="#DejaVuSans-6f"/>
       <use x="906.099609" xlink:href="#DejaVuSans-75"/>
       <use x="969.478516" xlink:href="#DejaVuSans-72"/>
       <use x="1010.591797" xlink:href="#DejaVuSans-61"/>
       <use x="1071.871094" xlink:href="#DejaVuSans-67"/>
       <use x="1135.347656" xlink:href="#DejaVuSans-65"/>
       <use x="1196.871094" xlink:href="#DejaVuSans-6d"/>
       <use x="1294.283203" xlink:href="#DejaVuSans-65"/>
       <use x="1355.806641" xlink:href="#DejaVuSans-6e"/>
       <use x="1419.185547" xlink:href="#DejaVuSans-74"/>
      </g>
     </g>
    </g>
    <g id="xtick_5">
     <g id="line2d_5">
      <g>
       <use style="stroke:#000000;stroke-width:0.8;" x="1051.8975" xlink:href="#mefb98717ba" y="308.29375"/>
      </g>
     </g>
     <g id="text_5">
      <!-- Sensitive or violent comment -->
      <g transform="translate(978.46 322.892188)scale(0.1 -0.1)">
       <defs>
        <path id="DejaVuSans-20" transform="scale(0.015625)"/>
       </defs>
       <use xlink:href="#DejaVuSans-53"/>
       <use x="63.476562" xlink:href="#DejaVuSans-65"/>
       <use x="125" xlink:href="#DejaVuSans-6e"/>
       <use x="188.378906" xlink:href="#DejaVuSans-73"/>
       <use x="240.478516" xlink:href="#DejaVuSans-69"/>
       <use x="268.261719" xlink:href="#DejaVuSans-74"/>
       <use x="307.470703" xlink:href="#DejaVuSans-69"/>
       <use x="335.253906" xlink:href="#DejaVuSans-76"/>
       <use x="394.433594" xlink:href="#DejaVuSans-65"/>
       <use x="455.957031" xlink:href="#DejaVuSans-20"/>
       <use x="487.744141" xlink:href="#DejaVuSans-6f"/>
       <use x="548.925781" xlink:href="#DejaVuSans-72"/>
       <use x="590.039062" xlink:href="#DejaVuSans-20"/>
       <use x="621.826172" xlink:href="#DejaVuSans-76"/>
       <use x="681.005859" xlink:href="#DejaVuSans-69"/>
       <use x="708.789062" xlink:href="#DejaVuSans-6f"/>
       <use x="769.970703" xlink:href="#DejaVuSans-6c"/>
       <use x="797.753906" xlink:href="#DejaVuSans-65"/>
       <use x="859.277344" xlink:href="#DejaVuSans-6e"/>
       <use x="922.65625" xlink:href="#DejaVuSans-74"/>
       <use x="961.865234" xlink:href="#DejaVuSans-20"/>
       <use x="993.652344" xlink:href="#DejaVuSans-63"/>
       <use x="1048.632812" xlink:href="#DejaVuSans-6f"/>
       <use x="1109.814453" xlink:href="#DejaVuSans-6d"/>
       <use x="1207.226562" xlink:href="#DejaVuSans-6d"/>
       <use x="1304.638672" xlink:href="#DejaVuSans-65"/>
       <use x="1366.162109" xlink:href="#DejaVuSans-6e"/>
       <use x="1429.541016" xlink:href="#DejaVuSans-74"/>
      </g>
     </g>
    </g>
    <g id="text_6">
     <!-- Feedback type -->
     <g transform="translate(540.546875 344.446875)scale(0.2 -0.2)">
      <defs>
       <path d="M 628 4666
L 3309 4666
L 3309 4134
L 1259 4134
L 1259 2759
L 3109 2759
L 3109 2228
L 1259 2228
L 1259 0
L 628 0
L 628 4666
z
" id="DejaVuSans-46" transform="scale(0.015625)"/>
       <path d="M 2906 2969
L 2906 4863
L 3481 4863
L 3481 0
L 2906 0
L 2906 525
Q 2725 213 2448 61
Q 2172 -91 1784 -91
Q 1150 -91 751 415
Q 353 922 353 1747
Q 353 2572 751 3078
Q 1150 3584 1784 3584
Q 2172 3584 2448 3432
Q 2725 3281 2906 2969
z
M 947 1747
Q 947 1113 1208 752
Q 1469 391 1925 391
Q 2381 391 2643 752
Q 2906 1113 2906 1747
Q 2906 2381 2643 2742
Q 2381 3103 1925 3103
Q 1469 3103 1208 2742
Q 947 2381 947 1747
z
" id="DejaVuSans-64" transform="scale(0.015625)"/>
       <path d="M 581 4863
L 1159 4863
L 1159 1991
L 2875 3500
L 3609 3500
L 1753 1863
L 3688 0
L 2938 0
L 1159 1709
L 1159 0
L 581 0
L 581 4863
z
" id="DejaVuSans-6b" transform="scale(0.015625)"/>
       <path d="M 2059 -325
Q 1816 -950 1584 -1140
Q 1353 -1331 966 -1331
L 506 -1331
L 506 -850
L 844 -850
Q 1081 -850 1212 -737
Q 1344 -625 1503 -206
L 1606 56
L 191 3500
L 800 3500
L 1894 763
L 2988 3500
L 3597 3500
L 2059 -325
z
" id="DejaVuSans-79" transform="scale(0.015625)"/>
      </defs>
      <use xlink:href="#DejaVuSans-46"/>
      <use x="52.019531" xlink:href="#DejaVuSans-65"/>
      <use x="113.542969" xlink:href="#DejaVuSans-65"/>
      <use x="175.066406" xlink:href="#DejaVuSans-64"/>
      <use x="238.542969" xlink:href="#DejaVuSans-62"/>
      <use x="302.019531" xlink:href="#DejaVuSans-61"/>
      <use x="363.298828" xlink:href="#DejaVuSans-63"/>
      <use x="418.279297" xlink:href="#DejaVuSans-6b"/>
      <use x="476.189453" xlink:href="#DejaVuSans-20"/>
      <use x="507.976562" xlink:href="#DejaVuSans-74"/>
      <use x="547.185547" xlink:href="#DejaVuSans-79"/>
      <use x="606.365234" xlink:href="#DejaVuSans-70"/>
      <use x="669.841797" xlink:href="#DejaVuSans-65"/>
     </g>
    </g>
   </g>
   <g id="matplotlib.axis_2">
    <g id="ytick_1">
     <g id="line2d_6">
      <defs>
       <path d="M 0 0
L -3.5 0
" id="mc56e464129" style="stroke:#000000;stroke-width:0.8;"/>
      </defs>
      <g>
       <use style="stroke:#000000;stroke-width:0.8;" x="65.925" xlink:href="#mc56e464129" y="308.29375"/>
      </g>
     </g>
     <g id="text_7">
      <!-- 0 -->
      <g transform="translate(52.5625 312.092969)scale(0.1 -0.1)">
       <defs>
        <path d="M 2034 4250
Q 1547 4250 1301 3770
Q 1056 3291 1056 2328
Q 1056 1369 1301 889
Q 1547 409 2034 409
Q 2525 409 2770 889
Q 3016 1369 3016 2328
Q 3016 3291 2770 3770
Q 2525 4250 2034 4250
z
M 2034 4750
Q 2819 4750 3233 4129
Q 3647 3509 3647 2328
Q 3647 1150 3233 529
Q 2819 -91 2034 -91
Q 1250 -91 836 529
Q 422 1150 422 2328
Q 422 3509 836 4129
Q 1250 4750 2034 4750
z
" id="DejaVuSans-30" transform="scale(0.015625)"/>
       </defs>
       <use xlink:href="#DejaVuSans-30"/>
      </g>
     </g>
    </g>
    <g id="ytick_2">
     <g id="line2d_7">
      <g>
       <use style="stroke:#000000;stroke-width:0.8;" x="65.925" xlink:href="#mc56e464129" y="248.351255"/>
      </g>
     </g>
     <g id="text_8">
      <!-- 1000 -->
      <g transform="translate(33.475 252.150474)scale(0.1 -0.1)">
       <defs>
        <path d="M 794 531
L 1825 531
L 1825 4091
L 703 3866
L 703 4441
L 1819 4666
L 2450 4666
L 2450 531
L 3481 531
L 3481 0
L 794 0
L 794 531
z
" id="DejaVuSans-31" transform="scale(0.015625)"/>
       </defs>
       <use xlink:href="#DejaVuSans-31"/>
       <use x="63.623047" xlink:href="#DejaVuSans-30"/>
       <use x="127.246094" xlink:href="#DejaVuSans-30"/>
       <use x="190.869141" xlink:href="#DejaVuSans-30"/>
      </g>
     </g>
    </g>
    <g id="ytick_3">
     <g id="line2d_8">
      <g>
       <use style="stroke:#000000;stroke-width:0.8;" x="65.925" xlink:href="#mc56e464129" y="188.40876"/>
      </g>
     </g>
     <g id="text_9">
      <!-- 2000 -->
      <g transform="translate(33.475 192.207979)scale(0.1 -0.1)">
       <defs>
        <path d="M 1228 531
L 3431 531
L 3431 0
L 469 0
L 469 531
Q 828 903 1448 1529
Q 2069 2156 2228 2338
Q 2531 2678 2651 2914
Q 2772 3150 2772 3378
Q 2772 3750 2511 3984
Q 2250 4219 1831 4219
Q 1534 4219 1204 4116
Q 875 4013 500 3803
L 500 4441
Q 881 4594 1212 4672
Q 1544 4750 1819 4750
Q 2544 4750 2975 4387
Q 3406 4025 3406 3419
Q 3406 3131 3298 2873
Q 3191 2616 2906 2266
Q 2828 2175 2409 1742
Q 1991 1309 1228 531
z
" id="DejaVuSans-32" transform="scale(0.015625)"/>
       </defs>
       <use xlink:href="#DejaVuSans-32"/>
       <use x="63.623047" xlink:href="#DejaVuSans-30"/>
       <use x="127.246094" xlink:href="#DejaVuSans-30"/>
       <use x="190.869141" xlink:href="#DejaVuSans-30"/>
      </g>
     </g>
    </g>
    <g id="ytick_4">
     <g id="line2d_9">
      <g>
       <use style="stroke:#000000;stroke-width:0.8;" x="65.925" xlink:href="#mc56e464129" y="128.466265"/>
      </g>
     </g>
     <g id="text_10">
      <!-- 3000 -->
      <g transform="translate(33.475 132.265483)scale(0.1 -0.1)">
       <defs>
        <path d="M 2597 2516
Q 3050 2419 3304 2112
Q 3559 1806 3559 1356
Q 3559 666 3084 287
Q 2609 -91 1734 -91
Q 1441 -91 1130 -33
Q 819 25 488 141
L 488 750
Q 750 597 1062 519
Q 1375 441 1716 441
Q 2309 441 2620 675
Q 2931 909 2931 1356
Q 2931 1769 2642 2001
Q 2353 2234 1838 2234
L 1294 2234
L 1294 2753
L 1863 2753
Q 2328 2753 2575 2939
Q 2822 3125 2822 3475
Q 2822 3834 2567 4026
Q 2313 4219 1838 4219
Q 1578 4219 1281 4162
Q 984 4106 628 3988
L 628 4550
Q 988 4650 1302 4700
Q 1616 4750 1894 4750
Q 2613 4750 3031 4423
Q 3450 4097 3450 3541
Q 3450 3153 3228 2886
Q 3006 2619 2597 2516
z
" id="DejaVuSans-33" transform="scale(0.015625)"/>
       </defs>
       <use xlink:href="#DejaVuSans-33"/>
       <use x="63.623047" xlink:href="#DejaVuSans-30"/>
       <use x="127.246094" xlink:href="#DejaVuSans-30"/>
       <use x="190.869141" xlink:href="#DejaVuSans-30"/>
      </g>
     </g>
    </g>
    <g id="ytick_5">
     <g id="line2d_10">
      <g>
       <use style="stroke:#000000;stroke-width:0.8;" x="65.925" xlink:href="#mc56e464129" y="68.52377"/>
      </g>
     </g>
     <g id="text_11">
      <!-- 4000 -->
      <g transform="translate(33.475 72.322988)scale(0.1 -0.1)">
       <defs>
        <path d="M 2419 4116
L 825 1625
L 2419 1625
L 2419 4116
z
M 2253 4666
L 3047 4666
L 3047 1625
L 3713 1625
L 3713 1100
L 3047 1100
L 3047 0
L 2419 0
L 2419 1100
L 313 1100
L 313 1709
L 2253 4666
z
" id="DejaVuSans-34" transform="scale(0.015625)"/>
       </defs>
       <use xlink:href="#DejaVuSans-34"/>
       <use x="63.623047" xlink:href="#DejaVuSans-30"/>
       <use x="127.246094" xlink:href="#DejaVuSans-30"/>
       <use x="190.869141" xlink:href="#DejaVuSans-30"/>
      </g>
     </g>
    </g>
    <g id="text_12">
     <!-- Count -->
     <g transform="translate(25.315625 199.74375)rotate(-90)scale(0.2 -0.2)">
      <defs>
       <path d="M 4122 4306
L 4122 3641
Q 3803 3938 3442 4084
Q 3081 4231 2675 4231
Q 1875 4231 1450 3742
Q 1025 3253 1025 2328
Q 1025 1406 1450 917
Q 1875 428 2675 428
Q 3081 428 3442 575
Q 3803 722 4122 1019
L 4122 359
Q 3791 134 3420 21
Q 3050 -91 2638 -91
Q 1578 -91 968 557
Q 359 1206 359 2328
Q 359 3453 968 4101
Q 1578 4750 2638 4750
Q 3056 4750 3426 4639
Q 3797 4528 4122 4306
z
" id="DejaVuSans-43" transform="scale(0.015625)"/>
      </defs>
      <use xlink:href="#DejaVuSans-43"/>
      <use x="69.824219" xlink:href="#DejaVuSans-6f"/>
      <use x="131.005859" xlink:href="#DejaVuSans-75"/>
      <use x="194.384766" xlink:href="#DejaVuSans-6e"/>
      <use x="257.763672" xlink:href="#DejaVuSans-74"/>
     </g>
    </g>
   </g>
   <g id="patch_23">
    <path d="M 65.925 308.29375
L 65.925 31.8
" style="fill:none;stroke:#000000;stroke-linecap:square;stroke-linejoin:miter;stroke-width:0.8;"/>
   </g>
   <g id="patch_24">
    <path d="M 65.925 308.29375
L 1161.45 308.29375
" style="fill:none;stroke:#000000;stroke-linecap:square;stroke-linejoin:miter;stroke-width:0.8;"/>
   </g>
   <g id="text_13">
    <!-- Feedback type distribution by gender -->
    <g transform="translate(426.307812 25.8)scale(0.2 -0.2)">
     <use xlink:href="#DejaVuSans-46"/>
     <use x="52.019531" xlink:href="#DejaVuSans-65"/>
     <use x="113.542969" xlink:href="#DejaVuSans-65"/>
     <use x="175.066406" xlink:href="#DejaVuSans-64"/>
     <use x="238.542969" xlink:href="#DejaVuSans-62"/>
     <use x="302.019531" xlink:href="#DejaVuSans-61"/>
     <use x="363.298828" xlink:href="#DejaVuSans-63"/>
     <use x="418.279297" xlink:href="#DejaVuSans-6b"/>
     <use x="476.189453" xlink:href="#DejaVuSans-20"/>
     <use x="507.976562" xlink:href="#DejaVuSans-74"/>
     <use x="547.185547" xlink:href="#DejaVuSans-79"/>
     <use x="606.365234" xlink:href="#DejaVuSans-70"/>
     <use x="669.841797" xlink:href="#DejaVuSans-65"/>
     <use x="731.365234" xlink:href="#DejaVuSans-20"/>
     <use x="763.152344" xlink:href="#DejaVuSans-64"/>
     <use x="826.628906" xlink:href="#DejaVuSans-69"/>
     <use x="854.412109" xlink:href="#DejaVuSans-73"/>
     <use x="906.511719" xlink:href="#DejaVuSans-74"/>
     <use x="945.720703" xlink:href="#DejaVuSans-72"/>
     <use x="986.833984" xlink:href="#DejaVuSans-69"/>
     <use x="1014.617188" xlink:href="#DejaVuSans-62"/>
     <use x="1078.09375" xlink:href="#DejaVuSans-75"/>
     <use x="1141.472656" xlink:href="#DejaVuSans-74"/>
     <use x="1180.681641" xlink:href="#DejaVuSans-69"/>
     <use x="1208.464844" xlink:href="#DejaVuSans-6f"/>
     <use x="1269.646484" xlink:href="#DejaVuSans-6e"/>
     <use x="1333.025391" xlink:href="#DejaVuSans-20"/>
     <use x="1364.8125" xlink:href="#DejaVuSans-62"/>
     <use x="1428.289062" xlink:href="#DejaVuSans-79"/>
     <use x="1487.46875" xlink:href="#DejaVuSans-20"/>
     <use x="1519.255859" xlink:href="#DejaVuSans-67"/>
     <use x="1582.732422" xlink:href="#DejaVuSans-65"/>
     <use x="1644.255859" xlink:href="#DejaVuSans-6e"/>
     <use x="1707.634766" xlink:href="#DejaVuSans-64"/>
     <use x="1771.111328" xlink:href="#DejaVuSans-65"/>
     <use x="1832.634766" xlink:href="#DejaVuSans-72"/>
    </g>
   </g>
  </g>
  <g id="legend_1">
   <g id="text_14">
    <!-- gender -->
    <g transform="translate(1103.310156 153.403125)scale(0.1 -0.1)">
     <use xlink:href="#DejaVuSans-67"/>
     <use x="63.476562" xlink:href="#DejaVuSans-65"/>
     <use x="125" xlink:href="#DejaVuSans-6e"/>
     <use x="188.378906" xlink:href="#DejaVuSans-64"/>
     <use x="251.855469" xlink:href="#DejaVuSans-65"/>
     <use x="313.378906" xlink:href="#DejaVuSans-72"/>
    </g>
   </g>
   <g id="patch_25">
    <path d="M 1078.821875 168.08125
L 1098.821875 168.08125
L 1098.821875 161.08125
L 1078.821875 161.08125
z
" style="fill:#2020df;"/>
   </g>
   <g id="text_15">
    <!-- Male  -->
    <g transform="translate(1106.821875 168.08125)scale(0.1 -0.1)">
     <defs>
      <path d="M 628 4666
L 1569 4666
L 2759 1491
L 3956 4666
L 4897 4666
L 4897 0
L 4281 0
L 4281 4097
L 3078 897
L 2444 897
L 1241 4097
L 1241 0
L 628 0
L 628 4666
z
" id="DejaVuSans-4d" transform="scale(0.015625)"/>
     </defs>
     <use xlink:href="#DejaVuSans-4d"/>
     <use x="86.279297" xlink:href="#DejaVuSans-61"/>
     <use x="147.558594" xlink:href="#DejaVuSans-6c"/>
     <use x="175.341797" xlink:href="#DejaVuSans-65"/>
     <use x="236.865234" xlink:href="#DejaVuSans-20"/>
    </g>
   </g>
   <g id="patch_26">
    <path d="M 1078.821875 182.759375
L 1098.821875 182.759375
L 1098.821875 175.759375
L 1078.821875 175.759375
z
" style="fill:#e87b5e;"/>
   </g>
   <g id="text_16">
    <!-- Female -->
    <g transform="translate(1106.821875 182.759375)scale(0.1 -0.1)">
     <use xlink:href="#DejaVuSans-46"/>
     <use x="52.019531" xlink:href="#DejaVuSans-65"/>
     <use x="113.542969" xlink:href="#DejaVuSans-6d"/>
     <use x="210.955078" xlink:href="#DejaVuSans-61"/>
     <use x="272.234375" xlink:href="#DejaVuSans-6c"/>
     <use x="300.017578" xlink:href="#DejaVuSans-65"/>
    </g>
   </g>
   <g id="patch_27">
    <path d="M 1078.821875 197.4375
L 1098.821875 197.4375
L 1098.821875 190.4375
L 1078.821875 190.4375
z
" style="fill:#299381;"/>
   </g>
   <g id="text_17">
    <!-- Mixed -->
    <g transform="translate(1106.821875 197.4375)scale(0.1 -0.1)">
     <defs>
      <path d="M 3513 3500
L 2247 1797
L 3578 0
L 2900 0
L 1881 1375
L 863 0
L 184 0
L 1544 1831
L 300 3500
L 978 3500
L 1906 2253
L 2834 3500
L 3513 3500
z
" id="DejaVuSans-78" transform="scale(0.015625)"/>
     </defs>
     <use xlink:href="#DejaVuSans-4d"/>
     <use x="86.279297" xlink:href="#DejaVuSans-69"/>
     <use x="114.0625" xlink:href="#DejaVuSans-78"/>
     <use x="170.117188" xlink:href="#DejaVuSans-65"/>
     <use x="231.640625" xlink:href="#DejaVuSans-64"/>
    </g>
   </g>
   <g id="patch_28">
    <path d="M 1078.821875 212.115625
L 1098.821875 212.115625
L 1098.821875 205.115625
L 1078.821875 205.115625
z
" style="fill:#ce1d4a;"/>
   </g>
   <g id="text_18">
    <!-- Don't know -->
    <g transform="translate(1106.821875 212.115625)scale(0.1 -0.1)">
     <defs>
      <path d="M 1259 4147
L 1259 519
L 2022 519
Q 2988 519 3436 956
Q 3884 1394 3884 2338
Q 3884 3275 3436 3711
Q 2988 4147 2022 4147
L 1259 4147
z
M 628 4666
L 1925 4666
Q 3281 4666 3915 4102
Q 4550 3538 4550 2338
Q 4550 1131 3912 565
Q 3275 0 1925 0
L 628 0
L 628 4666
z
" id="DejaVuSans-44" transform="scale(0.015625)"/>
      <path d="M 1147 4666
L 1147 2931
L 616 2931
L 616 4666
L 1147 4666
z
" id="DejaVuSans-27" transform="scale(0.015625)"/>
      <path d="M 269 3500
L 844 3500
L 1563 769
L 2278 3500
L 2956 3500
L 3675 769
L 4391 3500
L 4966 3500
L 4050 0
L 3372 0
L 2619 2869
L 1863 0
L 1184 0
L 269 3500
z
" id="DejaVuSans-77" transform="scale(0.015625)"/>
     </defs>
     <use xlink:href="#DejaVuSans-44"/>
     <use x="77.001953" xlink:href="#DejaVuSans-6f"/>
     <use x="138.183594" xlink:href="#DejaVuSans-6e"/>
     <use x="201.5625" xlink:href="#DejaVuSans-27"/>
     <use x="229.052734" xlink:href="#DejaVuSans-74"/>
     <use x="268.261719" xlink:href="#DejaVuSans-20"/>
     <use x="300.048828" xlink:href="#DejaVuSans-6b"/>
     <use x="357.958984" xlink:href="#DejaVuSans-6e"/>
     <use x="421.337891" xlink:href="#DejaVuSans-6f"/>
     <use x="482.519531" xlink:href="#DejaVuSans-77"/>
    </g>
   </g>
  </g>
 </g>
 <defs>
  <clipPath id="p454ee24309">
   <rect height="276.49375" width="1095.525" x="65.925" y="31.8"/>
  </clipPath>
 </defs>
</svg>
